<?xml version="1.0" encoding="UTF-8"?>
<svg id="_レイヤー_1" xmlns="http://www.w3.org/2000/svg" version="1.1" viewBox="0 0 155.8 155.8">
  <!-- Generator: Adobe Illustrator 29.8.2, SVG Export Plug-In . SVG Version: 2.1.1 Build 3)  -->
  <defs>
    <style>
      .st0 {
        fill: none;
        stroke-width: 4px;
      }

      .st0, .st1, .st2 {
        stroke: #231815;
        stroke-miterlimit: 10;
      }

      .st1, .st2 {
        fill: #fff;
        stroke-width: 3px;
      }

      .st2 {
        isolation: isolate;
        opacity: .5;
      }

      .st3 {
        opacity: .95;
      }
    </style>
  </defs>
  <g>
    <rect class="st0" x=".1" y=".1" width="155.61" height="155.61"/>
    <line class="st0" x1=".1" y1="155.42" x2="155.71" y2="155.42"/>
    <line class="st0" x1=".1" y1="133.27" x2="155.71" y2="133.27"/>
    <line class="st0" x1=".1" y1="111.12" x2="155.71" y2="111.12"/>
    <line class="st0" x1=".1" y1="88.98" x2="155.71" y2="88.98"/>
    <line class="st0" x1=".1" y1="66.83" x2="155.71" y2="66.83"/>
    <line class="st0" x1=".1" y1="44.68" x2="155.71" y2="44.68"/>
    <line class="st0" x1=".1" y1="22.53" x2="155.71" y2="22.53"/>
    <line class="st0" x1=".1" y1=".38" x2="155.71" y2=".38"/>
    <line class="st0" x1="155.42" y1=".38" x2="155.42" y2="155.42"/>
    <line class="st0" x1="133.27" y1=".38" x2="133.27" y2="155.42"/>
    <line class="st0" x1="111.12" y1=".38" x2="111.12" y2="155.42"/>
    <line class="st0" x1="88.98" y1=".38" x2="88.98" y2="155.42"/>
    <line class="st0" x1="66.83" y1=".38" x2="66.83" y2="155.42"/>
    <line class="st0" x1="44.68" y1=".38" x2="44.68" y2="155.42"/>
    <line class="st0" x1="22.53" y1=".38" x2="22.53" y2="155.42"/>
    <line class="st0" x1=".38" y1=".38" x2=".38" y2="155.42"/>
  </g>
  <g class="st3">
    <g>
      <path class="st2" d="M37.89,23.98c-16.24,10.17-25.47,33.49-24.19,54.68,1.04,17.22,8.78,28.78,12.26,33.85,13.31,19.36,36.91,31.83,56.74,26.41,10.15-2.77,12.66-8.41,29.89-12.86,10.8-2.79,13.54-1.53,18.84-5.27,10.33-7.29,15.15-22.82,15.48-35.3.46-17.16-7.49-31.35-15.84-38.86-3.06-2.76-4.32-2.95-21.89-10.84-23.56-10.59-21.51-10.34-25.76-11.79-11.87-4.04-29.52-10.06-45.54-.03h.01Z"/>
      <path class="st1" d="M37.89,23.98c-16.24,10.17-25.47,33.49-24.19,54.68,1.04,17.22,8.78,28.78,12.26,33.85,13.31,19.36,36.91,31.83,56.74,26.41,10.15-2.77,12.66-8.41,29.89-12.86,10.8-2.79,13.54-1.53,18.84-5.27,10.33-7.29,15.15-22.82,15.48-35.3.46-17.16-7.49-31.35-15.84-38.86-3.06-2.76-4.32-2.95-21.89-10.84-23.56-10.59-21.51-10.34-25.76-11.79-11.87-4.04-29.52-10.06-45.54-.03h.01Z"/>
    </g>
  </g>
</svg>